<?xml version="1.0" encoding="UTF-8" standalone="no"?>
<!DOCTYPE svg PUBLIC "-//W3C//DTD SVG 1.1//EN"
 "http://www.w3.org/Graphics/SVG/1.1/DTD/svg11.dtd">
<!-- Generated by graphviz version 15.0.0 (20260523.1842)
 -->
<!-- Title: G Pages: 1 -->
<svg width="664pt" height="626pt"
 viewBox="0.00 0.00 664.00 626.00" xmlns="http://www.w3.org/2000/svg" xmlns:xlink="http://www.w3.org/1999/xlink">
<g id="graph0" class="graph" transform="scale(1 1) rotate(0) translate(4 622)">
<title>G</title>
<polygon fill="white" stroke="none" points="-4,4 -4,-622 660,-622 660,4 -4,4"/>
<g id="clust1" class="cluster">
<title>cluster_customer</title>
<polygon fill="#eef3fb" stroke="#1f4e78" points="8,-285.8 8,-610 202,-610 202,-285.8 8,-285.8"/>
</g>
<g id="clust2" class="cluster">
<title>cluster_fe</title>
<polygon fill="#eef7fd" stroke="#2e75b6" points="218,-197.2 218,-610 424,-610 424,-197.2 218,-197.2"/>
</g>
<g id="clust3" class="cluster">
<title>cluster_be</title>
<polygon fill="#f6f0fb" stroke="#7030a0" points="440,-8 440,-610 648,-610 648,-8 440,-8"/>
</g>
<!-- h_cust -->
<g id="node1" class="node">
<title>h_cust</title>
<polygon fill="#1f4e78" stroke="#1f4e78" stroke-width="1.5" points="191.55,-600 18.45,-600 18.45,-564 191.55,-564 191.55,-600"/>
<text xml:space="preserve" text-anchor="middle" x="105" y="-578.3" font-family="Arial bold" font-size="11.00" fill="white">KHÁCH HÀNG (CUSTOMER)</text>
</g>
<!-- start -->
<g id="node2" class="node">
<title>start</title>
<ellipse fill="#e8f5e9" stroke="#2e7d32" stroke-width="2" cx="111" cy="-492.2" rx="28.8" ry="28.8"/>
<text xml:space="preserve" text-anchor="middle" x="111" y="-494.7" font-family="Arial" font-size="10.00" fill="#1b5e20">Bắt đầu</text>
<text xml:space="preserve" text-anchor="middle" x="111" y="-482.7" font-family="Arial" font-size="10.00" fill="#1b5e20">Chọn IoT</text>
</g>
<!-- h_cust&#45;&gt;start -->
<!-- select_socket -->
<g id="node3" class="node">
<title>select_socket</title>
<path fill="white" stroke="#4682b4" stroke-width="1.5" d="M174.05,-420.4C174.05,-420.4 69.95,-420.4 69.95,-420.4 63.95,-420.4 57.95,-414.4 57.95,-408.4 57.95,-408.4 57.95,-386.8 57.95,-386.8 57.95,-380.8 63.95,-374.8 69.95,-374.8 69.95,-374.8 174.05,-374.8 174.05,-374.8 180.05,-374.8 186.05,-380.8 186.05,-386.8 186.05,-386.8 186.05,-408.4 186.05,-408.4 186.05,-414.4 180.05,-420.4 174.05,-420.4"/>
<text xml:space="preserve" text-anchor="middle" x="122" y="-400.1" font-family="Arial" font-size="10.00">Chọn Ổ cắm thông minh</text>
<text xml:space="preserve" text-anchor="middle" x="122" y="-388.1" font-family="Arial" font-size="10.00">FPT Smart Home</text>
</g>
<!-- start&#45;&gt;select_socket -->
<g id="edge4" class="edge">
<title>start&#45;&gt;select_socket</title>
<path fill="none" stroke="#444444" stroke-width="1.2" d="M111,-462.53C111,-462.53 111,-432.68 111,-432.68"/>
<polygon fill="#444444" stroke="#444444" stroke-width="1.2" points="114.5,-432.68 111,-422.68 107.5,-432.68 114.5,-432.68"/>
</g>
<!-- add_cart -->
<g id="node4" class="node">
<title>add_cart</title>
<path fill="white" stroke="#4682b4" stroke-width="1.5" d="M165.43,-331.8C165.43,-331.8 108.58,-331.8 108.58,-331.8 102.58,-331.8 96.58,-325.8 96.58,-319.8 96.58,-319.8 96.58,-307.8 96.58,-307.8 96.58,-301.8 102.58,-295.8 108.58,-295.8 108.58,-295.8 165.43,-295.8 165.43,-295.8 171.43,-295.8 177.43,-301.8 177.43,-307.8 177.43,-307.8 177.43,-319.8 177.43,-319.8 177.43,-325.8 171.43,-331.8 165.43,-331.8"/>
<text xml:space="preserve" text-anchor="middle" x="137" y="-310.3" font-family="Arial" font-size="10.00">Thêm vào giỏ</text>
</g>
<!-- select_socket&#45;&gt;add_cart -->
<g id="edge5" class="edge">
<title>select_socket&#45;&gt;add_cart</title>
<path fill="none" stroke="#444444" stroke-width="1.2" d="M137,-374.26C137,-374.26 137,-344.33 137,-344.33"/>
<polygon fill="#444444" stroke="#444444" stroke-width="1.2" points="140.5,-344.33 137,-334.33 133.5,-344.33 140.5,-344.33"/>
</g>
<!-- suggest_hub -->
<g id="node6" class="node">
<title>suggest_hub</title>
<path fill="white" stroke="#4682b4" stroke-width="1.5" d="M366.3,-252.8C366.3,-252.8 275.7,-252.8 275.7,-252.8 269.7,-252.8 263.7,-246.8 263.7,-240.8 263.7,-240.8 263.7,-219.2 263.7,-219.2 263.7,-213.2 269.7,-207.2 275.7,-207.2 275.7,-207.2 366.3,-207.2 366.3,-207.2 372.3,-207.2 378.3,-213.2 378.3,-219.2 378.3,-219.2 378.3,-240.8 378.3,-240.8 378.3,-246.8 372.3,-252.8 366.3,-252.8"/>
<text xml:space="preserve" text-anchor="middle" x="321" y="-232.5" font-family="Arial" font-size="10.00">Gợi ý Cross&#45;sell Hub</text>
<text xml:space="preserve" text-anchor="middle" x="321" y="-220.5" font-family="Arial" font-size="10.00">(Bộ trung tâm)</text>
</g>
<!-- add_cart&#45;&gt;suggest_hub -->
<g id="edge6" class="edge">
<title>add_cart&#45;&gt;suggest_hub</title>
<path fill="none" stroke="#444444" stroke-width="1.2" d="M137,-295.2C137,-270.51 137,-230 137,-230 137,-230 251.22,-230 251.22,-230"/>
<polygon fill="#444444" stroke="#444444" stroke-width="1.2" points="251.22,-233.5 261.22,-230 251.22,-226.5 251.22,-233.5"/>
</g>
<!-- h_fe -->
<g id="node5" class="node">
<title>h_fe</title>
<polygon fill="#2e75b6" stroke="#2e75b6" stroke-width="1.5" points="414.3,-600 227.7,-600 227.7,-564 414.3,-564 414.3,-600"/>
<text xml:space="preserve" text-anchor="middle" x="321" y="-578.3" font-family="Arial bold" font-size="11.00" fill="white">WEBSITE FPT.VN (FRONTEND)</text>
</g>
<!-- h_fe&#45;&gt;suggest_hub -->
<!-- update_cart -->
<g id="node8" class="node">
<title>update_cart</title>
<path fill="white" stroke="#7030a0" stroke-width="1.5" d="M561.3,-164.2C561.3,-164.2 482.7,-164.2 482.7,-164.2 476.7,-164.2 470.7,-158.2 470.7,-152.2 470.7,-152.2 470.7,-130.6 470.7,-130.6 470.7,-124.6 476.7,-118.6 482.7,-118.6 482.7,-118.6 561.3,-118.6 561.3,-118.6 567.3,-118.6 573.3,-124.6 573.3,-130.6 573.3,-130.6 573.3,-152.2 573.3,-152.2 573.3,-158.2 567.3,-164.2 561.3,-164.2"/>
<text xml:space="preserve" text-anchor="middle" x="522" y="-143.9" font-family="Arial" font-size="10.00">Lưu vào Database</text>
<text xml:space="preserve" text-anchor="middle" x="522" y="-131.9" font-family="Arial" font-size="10.00">Giỏ hàng</text>
</g>
<!-- suggest_hub&#45;&gt;update_cart -->
<g id="edge7" class="edge">
<title>suggest_hub&#45;&gt;update_cart</title>
<path fill="none" stroke="#444444" stroke-width="1.2" d="M378.93,-230C432.84,-230 504.9,-230 504.9,-230 504.9,-230 504.9,-176.49 504.9,-176.49"/>
<polygon fill="#444444" stroke="#444444" stroke-width="1.2" points="508.4,-176.49 504.9,-166.49 501.4,-176.49 508.4,-176.49"/>
</g>
<!-- h_be -->
<g id="node7" class="node">
<title>h_be</title>
<polygon fill="#7030a0" stroke="#7030a0" stroke-width="1.5" points="637.6,-600 450.4,-600 450.4,-564 637.6,-564 637.6,-600"/>
<text xml:space="preserve" text-anchor="middle" x="544" y="-578.3" font-family="Arial bold" font-size="11.00" fill="white">BACKEND &amp; TÍCH HỢP</text>
</g>
<!-- h_be&#45;&gt;update_cart -->
<!-- end -->
<g id="node9" class="node">
<title>end</title>
<ellipse fill="#ffebee" stroke="#c62828" stroke-width="2.5" cx="522" cy="-46.8" rx="28.8" ry="28.8"/>
<text xml:space="preserve" text-anchor="middle" x="522" y="-49.3" font-family="Arial" font-size="10.00" fill="#b71c1c">Hoàn tất</text>
<text xml:space="preserve" text-anchor="middle" x="522" y="-37.3" font-family="Arial" font-size="10.00" fill="#b71c1c">Đơn hàng</text>
</g>
<!-- update_cart&#45;&gt;end -->
<g id="edge8" class="edge">
<title>update_cart&#45;&gt;end</title>
<path fill="none" stroke="#444444" stroke-width="1.2" d="M522,-118.02C522,-118.02 522,-88.53 522,-88.53"/>
<polygon fill="#444444" stroke="#444444" stroke-width="1.2" points="525.5,-88.53 522,-78.53 518.5,-88.53 525.5,-88.53"/>
</g>
</g>
</svg>
