<svg xmlns="http://www.w3.org/2000/svg" width="1940" height="2580" viewBox="0 0 1940 2580" font-family="Arial, sans-serif">
<rect x="0" y="0" width="1940" height="2580" fill="#ffffff"/>
<text x="970.0" y="34" font-size="20" font-weight="bold" fill="#1f4e78" text-anchor="middle">SƠ ĐỒ BPMN — LUỒNG FCITIZEN (KHUYẾN MÃI CBNV FPT)</text>
<defs>
<marker id="arr" markerWidth="9" markerHeight="9" refX="7" refY="3" orient="auto" markerUnits="strokeWidth"><path d="M0,0 L7,3 L0,6 Z" fill="#444"/></marker>
</defs>
<rect x="280" y="84" width="540" height="2476" fill="#eef3fb" stroke="#1f4e78" stroke-width="1.4"/>
<rect x="280" y="84" width="540" height="46" fill="#1f4e78"/>
<text x="550.0" y="112.0" font-size="13.5" font-weight="bold" fill="#ffffff" text-anchor="middle">KHÁCH HÀNG (CUSTOMER)</text>
<rect x="820" y="84" width="540" height="2476" fill="#eef7fd" stroke="#2e75b6" stroke-width="1.4"/>
<rect x="820" y="84" width="540" height="46" fill="#2e75b6"/>
<text x="1090.0" y="112.0" font-size="13.5" font-weight="bold" fill="#ffffff" text-anchor="middle">WEBSITE FPT.VN (FRONTEND)</text>
<rect x="1360" y="84" width="540" height="2476" fill="#f6f0fb" stroke="#7030a0" stroke-width="1.4"/>
<rect x="1360" y="84" width="540" height="46" fill="#7030a0"/>
<text x="1630.0" y="112.0" font-size="13.5" font-weight="bold" fill="#ffffff" text-anchor="middle">HỆ THỐNG BACKEND &amp; TÍCH HỢP</text>
<path d="M550.0,216.0 L550.0,280.0" fill="none" stroke="#444" stroke-width="1.5"/>
<polygon points="546.0,274.0 554.0,274.0 550.0,280.0" fill="#444"/>
<path d="M550.0,340.0 L550.0,400.0" fill="none" stroke="#444" stroke-width="1.5"/>
<polygon points="546.0,394.0 554.0,394.0 550.0,400.0" fill="#444"/>
<path d="M550.0,460.0 L550.0,520.0" fill="none" stroke="#444" stroke-width="1.5"/>
<polygon points="546.0,514.0 554.0,514.0 550.0,520.0" fill="#444"/>
<path d="M550.0,580.0 L550.0,640.0" fill="none" stroke="#444" stroke-width="1.5"/>
<polygon points="546.0,634.0 554.0,634.0 550.0,640.0" fill="#444"/>
<path d="M550.0,700.0 L550.0,730.0 L1090.0,730.0 L1090.0,760.0" fill="none" stroke="#444" stroke-width="1.5"/>
<polygon points="1086.0,754.0 1094.0,754.0 1090.0,760.0" fill="#444"/>
<path d="M1090.0,820.0 L1090.0,875.0" fill="none" stroke="#444" stroke-width="1.5"/>
<polygon points="1086.0,869.0 1094.0,869.0 1090.0,875.0" fill="#444"/>
<path d="M1090.0,945.0 L1090.0,972.5 L955.0,972.5 L955.0,1000.0" fill="none" stroke="#444" stroke-width="1.5"/>
<polygon points="951.0,994.0 959.0,994.0 955.0,1000.0" fill="#444"/>
<rect x="984.4" y="958.5" width="76.2" height="15" fill="#ffffff" opacity="0.9"/>
<text x="1022.5" y="970.5" font-size="9.5" fill="#333" text-anchor="middle">Đúng format</text>
<path d="M1090.0,945.0 L1090.0,972.5 L1225.0,972.5 L1225.0,1000.0" fill="none" stroke="#444" stroke-width="1.5"/>
<polygon points="1221.0,994.0 1229.0,994.0 1225.0,1000.0" fill="#444"/>
<rect x="1122.5" y="958.5" width="70.0" height="15" fill="#ffffff" opacity="0.9"/>
<text x="1157.5" y="970.5" font-size="9.5" fill="#333" text-anchor="middle">Sai format</text>
<path d="M955.0,1060.0 L955.0,1090.0 L415.0,1090.0 L415.0,1120.0" fill="none" stroke="#444" stroke-width="1.5"/>
<polygon points="411.0,1114.0 419.0,1114.0 415.0,1120.0" fill="#444"/>
<path d="M1225.0,1060.0 L1225.0,1090.0 L685.0,1090.0 L685.0,1120.0" fill="none" stroke="#444" stroke-width="1.5"/>
<polygon points="681.0,1114.0 689.0,1114.0 685.0,1120.0" fill="#444"/>
<path d="M415.0,1180.0 L415.0,1210.0 L955.0,1210.0 L955.0,1240.0" fill="none" stroke="#444" stroke-width="1.5"/>
<polygon points="951.0,1234.0 959.0,1234.0 955.0,1240.0" fill="#444"/>
<path d="M685.0,1180.0 L685.0,1207.5 L1225.0,1207.5 L1225.0,1235.0" fill="none" stroke="#444" stroke-width="1.5"/>
<polygon points="1221.0,1229.0 1229.0,1229.0 1225.0,1235.0" fill="#444"/>
<path d="M1225.0,1305.0 L1225.0,1360.0" fill="none" stroke="#444" stroke-width="1.5"/>
<polygon points="1221.0,1354.0 1229.0,1354.0 1225.0,1360.0" fill="#444"/>
<rect x="1213.5" y="1323.5" width="39.0" height="15" fill="#ffffff" opacity="0.9"/>
<text x="1233.0" y="1335.5" font-size="9.5" fill="#333" text-anchor="middle">Không</text>
<path d="M955.0,1300.0 L955.0,1355.0" fill="none" stroke="#444" stroke-width="1.5"/>
<polygon points="951.0,1349.0 959.0,1349.0 955.0,1355.0" fill="#444"/>
<path d="M1225.0,1420.0 L1225.0,1450.0 L1765.0,1450.0 L1765.0,1480.0" fill="none" stroke="#444" stroke-width="1.5"/>
<polygon points="1761.0,1474.0 1769.0,1474.0 1765.0,1480.0" fill="#444"/>
<path d="M955.0,1425.0 L955.0,1480.0" fill="none" stroke="#444" stroke-width="1.5"/>
<polygon points="951.0,1474.0 959.0,1474.0 955.0,1480.0" fill="#444"/>
<rect x="946.6" y="1443.5" width="32.8" height="15" fill="#ffffff" opacity="0.9"/>
<text x="963.0" y="1455.5" font-size="9.5" fill="#333" text-anchor="middle">Fail</text>
<path d="M955.0,1425.0 L955.0,1720.0" fill="none" stroke="#444" stroke-width="1.5"/>
<polygon points="951.0,1714.0 959.0,1714.0 955.0,1720.0" fill="#444"/>
<rect x="946.6" y="1563.5" width="32.8" height="15" fill="#ffffff" opacity="0.9"/>
<text x="963.0" y="1575.5" font-size="9.5" fill="#333" text-anchor="middle">Pass</text>
<path d="M955.0,1540.0 L955.0,1595.0" fill="none" stroke="#444" stroke-width="1.5"/>
<polygon points="951.0,1589.0 959.0,1589.0 955.0,1595.0" fill="#444"/>
<path d="M955.0,1665.0 L955.0,1332.5 L1225.0,1332.5 L1225.0,1000.0" fill="none" stroke="#444" stroke-width="1.5"/>
<polygon points="1221.0,994.0 1229.0,994.0 1225.0,1000.0" fill="#444"/>
<rect x="1061.2" y="1318.5" width="57.6" height="15" fill="#ffffff" opacity="0.9"/>
<text x="1090.0" y="1330.5" font-size="9.5" fill="#333" text-anchor="middle">Nhập SĐT</text>
<path d="M1765.0,1540.0 L1765.0,1595.0" fill="none" stroke="#444" stroke-width="1.5"/>
<polygon points="1761.0,1589.0 1769.0,1589.0 1765.0,1595.0" fill="#444"/>
<path d="M1765.0,1665.0 L1765.0,1720.0" fill="none" stroke="#444" stroke-width="1.5"/>
<polygon points="1761.0,1714.0 1769.0,1714.0 1765.0,1720.0" fill="#444"/>
<rect x="1756.6" y="1683.5" width="32.8" height="15" fill="#ffffff" opacity="0.9"/>
<text x="1773.0" y="1695.5" font-size="9.5" fill="#333" text-anchor="middle">Pass</text>
<path d="M955.0,1780.0 L955.0,1810.0 L1495.0,1810.0 L1495.0,1840.0" fill="none" stroke="#444" stroke-width="1.5"/>
<polygon points="1491.0,1834.0 1499.0,1834.0 1495.0,1840.0" fill="#444"/>
<path d="M1765.0,1780.0 L1765.0,1840.0" fill="none" stroke="#444" stroke-width="1.5"/>
<polygon points="1761.0,1834.0 1769.0,1834.0 1765.0,1840.0" fill="#444"/>
<path d="M1765.0,1900.0 L1765.0,1964.0" fill="none" stroke="#444" stroke-width="1.5"/>
<polygon points="1761.0,1958.0 1769.0,1958.0 1765.0,1964.0" fill="#444"/>
<path d="M1495.0,1900.0 L1495.0,1955.0" fill="none" stroke="#444" stroke-width="1.5"/>
<polygon points="1491.0,1949.0 1499.0,1949.0 1495.0,1955.0" fill="#444"/>
<path d="M1495.0,2025.0 L1495.0,2080.0" fill="none" stroke="#444" stroke-width="1.5"/>
<polygon points="1491.0,2074.0 1499.0,2074.0 1495.0,2080.0" fill="#444"/>
<rect x="1492.8" y="2043.5" width="20.4" height="15" fill="#ffffff" opacity="0.9"/>
<text x="1503.0" y="2055.5" font-size="9.5" fill="#333" text-anchor="middle">Đủ</text>
<path d="M1495.0,2025.0 L1495.0,1872.5 L1765.0,1872.5 L1765.0,1720.0" fill="none" stroke="#444" stroke-width="1.5"/>
<polygon points="1761.0,1714.0 1769.0,1714.0 1765.0,1720.0" fill="#444"/>
<rect x="1601.2" y="1858.5" width="57.6" height="15" fill="#ffffff" opacity="0.9"/>
<text x="1630.0" y="1870.5" font-size="9.5" fill="#333" text-anchor="middle">Không đủ</text>
<path d="M1495.0,2140.0 L1495.0,2195.0" fill="none" stroke="#444" stroke-width="1.5"/>
<polygon points="1491.0,2189.0 1499.0,2189.0 1495.0,2195.0" fill="#444"/>
<path d="M1495.0,2265.0 L1495.0,2320.0" fill="none" stroke="#444" stroke-width="1.5"/>
<polygon points="1491.0,2314.0 1499.0,2314.0 1495.0,2320.0" fill="#444"/>
<rect x="1480.4" y="2283.5" width="45.2" height="15" fill="#ffffff" opacity="0.9"/>
<text x="1503.0" y="2295.5" font-size="9.5" fill="#333" text-anchor="middle">KH mới</text>
<path d="M1495.0,2265.0 L1495.0,2292.5 L1765.0,2292.5 L1765.0,2320.0" fill="none" stroke="#444" stroke-width="1.5"/>
<polygon points="1761.0,2314.0 1769.0,2314.0 1765.0,2320.0" fill="#444"/>
<rect x="1601.2" y="2278.5" width="57.6" height="15" fill="#ffffff" opacity="0.9"/>
<text x="1630.0" y="2290.5" font-size="9.5" fill="#333" text-anchor="middle">Hiện hữu</text>
<path d="M1495.0,2380.0 L1495.0,2444.0" fill="none" stroke="#444" stroke-width="1.5"/>
<polygon points="1491.0,2438.0 1499.0,2438.0 1495.0,2444.0" fill="#444"/>
<path d="M1765.0,2380.0 L1765.0,2444.0" fill="none" stroke="#444" stroke-width="1.5"/>
<polygon points="1761.0,2438.0 1769.0,2438.0 1765.0,2444.0" fill="#444"/>
<path d="M1190.0,1270.0 L790,1270.0 L790,790.0 L960.0,790.0" fill="none" stroke="#c62828" stroke-width="1.4" stroke-dasharray="6,4"/>
<polygon points="954.0,786.0 954.0,794.0 960.0,790.0" fill="#c62828"/>
<text x="794" y="1030.0" font-size="9.5" fill="#c62828" text-anchor="start" transform="rotate(-90 794 1030.0)">Có</text>
<path d="M920.0,1630.0 L740,1630.0 L740,1030.0 L840.0,1030.0" fill="none" stroke="#c62828" stroke-width="1.4" stroke-dasharray="6,4"/>
<polygon points="834.0,1026.0 834.0,1034.0 840.0,1030.0" fill="#c62828"/>
<text x="744" y="1330.0" font-size="9.5" fill="#c62828" text-anchor="start" transform="rotate(-90 744 1330.0)">Gửi lại OTP</text>
<path d="M1730.0,1630.0 L250,1630.0 L250,1150.0 L570.0,1150.0" fill="none" stroke="#c62828" stroke-width="1.4" stroke-dasharray="6,4"/>
<polygon points="564.0,1146.0 564.0,1154.0 570.0,1150.0" fill="#c62828"/>
<text x="254" y="1390.0" font-size="9.5" fill="#c62828" text-anchor="start" transform="rotate(-90 254 1390.0)">Fail</text>
<circle cx="550.0" cy="190.0" r="26" fill="#e8f5e9" stroke="#2e7d32" stroke-width="2"/>
<text x="550.0" y="193.325" font-size="9.5" fill="#1b5e20" font-weight="bold" text-anchor="middle"><tspan x="550.0" dy="0">Bắt đầu</tspan></text>
<rect x="420.0" y="280.0" width="260" height="60" rx="9" fill="#ffffff" stroke="#1f4e78" stroke-width="1.7"/>
<text x="550.0" y="313.5" font-size="10" fill="#1a1a1a" font-weight="normal" text-anchor="middle"><tspan x="550.0" dy="0">Truy cập fpt.vn/fcitizen</tspan></text>
<rect x="420.0" y="400.0" width="260" height="60" rx="9" fill="#ffffff" stroke="#1f4e78" stroke-width="1.7"/>
<text x="550.0" y="433.5" font-size="10" fill="#1a1a1a" font-weight="normal" text-anchor="middle"><tspan x="550.0" dy="0">Xem các gói ưu đãi cho CBNV</tspan></text>
<rect x="420.0" y="520.0" width="260" height="60" rx="9" fill="#ffffff" stroke="#1f4e78" stroke-width="1.7"/>
<text x="550.0" y="553.5" font-size="10" fill="#1a1a1a" font-weight="normal" text-anchor="middle"><tspan x="550.0" dy="0">Chọn gói &amp; bấm Đăng ký ngay</tspan></text>
<rect x="420.0" y="640.0" width="260" height="60" rx="9" fill="#ffffff" stroke="#1f4e78" stroke-width="1.7"/>
<text x="550.0" y="673.5" font-size="10" fill="#1a1a1a" font-weight="normal" text-anchor="middle"><tspan x="550.0" dy="0">Popup: Chọn CTTV &amp; Nhập Email</tspan></text>
<rect x="960.0" y="760.0" width="260" height="60" rx="9" fill="#ffffff" stroke="#2e75b6" stroke-width="1.7"/>
<text x="1090.0" y="793.5" font-size="10" fill="#1a1a1a" font-weight="normal" text-anchor="middle"><tspan x="1090.0" dy="0">Call API check Email</tspan></text>
<polygon points="1090.0,875.0 1125.0,910.0 1090.0,945.0 1055.0,910.0" fill="#fff2cc" stroke="#bf8f00" stroke-width="1.8"/>
<text x="1090.0" y="869.0" font-size="15" font-weight="bold" fill="#bf8f00" text-anchor="middle">×</text>
<text x="1090.0" y="913.15" font-size="9" fill="#5b4500" font-weight="bold" text-anchor="middle"><tspan x="1090.0" dy="0">Email chuẩn
format?</tspan></text>
<rect x="840.0" y="1000.0" width="230" height="60" rx="9" fill="#ffffff" stroke="#2e75b6" stroke-width="1.7"/>
<text x="955.0" y="1033.5" font-size="10" fill="#1a1a1a" font-weight="normal" text-anchor="middle"><tspan x="955.0" dy="0">Call API gửi OTP</tspan></text>
<rect x="1110.0" y="1000.0" width="230" height="60" rx="9" fill="#ffffff" stroke="#2e75b6" stroke-width="1.7"/>
<text x="1225.0" y="1033.5" font-size="10" fill="#1a1a1a" font-weight="normal" text-anchor="middle"><tspan x="1225.0" dy="0">Hiển thị field
nhập SĐT</tspan></text>
<rect x="300.0" y="1120.0" width="230" height="60" rx="9" fill="#ffffff" stroke="#1f4e78" stroke-width="1.7"/>
<text x="415.0" y="1153.5" font-size="10" fill="#1a1a1a" font-weight="normal" text-anchor="middle"><tspan x="415.0" dy="0">Nhập OTP</tspan></text>
<rect x="570.0" y="1120.0" width="230" height="60" rx="9" fill="#ffffff" stroke="#1f4e78" stroke-width="1.7"/>
<text x="685.0" y="1153.5" font-size="10" fill="#1a1a1a" font-weight="normal" text-anchor="middle"><tspan x="685.0" dy="0">Nhập SĐT</tspan></text>
<rect x="840.0" y="1240.0" width="230" height="60" rx="9" fill="#ffffff" stroke="#2e75b6" stroke-width="1.7"/>
<text x="955.0" y="1273.5" font-size="10" fill="#1a1a1a" font-weight="normal" text-anchor="middle"><tspan x="955.0" dy="0">Verify OTP</tspan></text>
<polygon points="1225.0,1235.0 1260.0,1270.0 1225.0,1305.0 1190.0,1270.0" fill="#fff2cc" stroke="#bf8f00" stroke-width="1.8"/>
<text x="1225.0" y="1229.0" font-size="15" font-weight="bold" fill="#bf8f00" text-anchor="middle">×</text>
<text x="1225.0" y="1273.15" font-size="9" fill="#5b4500" font-weight="bold" text-anchor="middle"><tspan x="1225.0" dy="0">Nhập lại
Email?</tspan></text>
<polygon points="955.0,1355.0 990.0,1390.0 955.0,1425.0 920.0,1390.0" fill="#fff2cc" stroke="#bf8f00" stroke-width="1.8"/>
<text x="955.0" y="1349.0" font-size="15" font-weight="bold" fill="#bf8f00" text-anchor="middle">×</text>
<text x="955.0" y="1393.15" font-size="9" fill="#5b4500" font-weight="bold" text-anchor="middle"><tspan x="955.0" dy="0">OTP Hợp lệ?</tspan></text>
<rect x="1110.0" y="1360.0" width="230" height="60" rx="9" fill="#ffffff" stroke="#2e75b6" stroke-width="1.7"/>
<text x="1225.0" y="1393.5" font-size="10" fill="#1a1a1a" font-weight="normal" text-anchor="middle"><tspan x="1225.0" dy="0">Bấm Gửi SĐT</tspan></text>
<rect x="840.0" y="1480.0" width="230" height="60" rx="9" fill="#ffffff" stroke="#2e75b6" stroke-width="1.7"/>
<text x="955.0" y="1513.5" font-size="10" fill="#1a1a1a" font-weight="normal" text-anchor="middle"><tspan x="955.0" dy="0">Thông báo lỗi</tspan></text>
<rect x="1650.0" y="1480.0" width="230" height="60" rx="9" fill="#ffffff" stroke="#7030a0" stroke-width="1.7"/>
<text x="1765.0" y="1513.5" font-size="10" fill="#1a1a1a" font-weight="normal" text-anchor="middle"><tspan x="1765.0" dy="0">Verify đầu số nhà mạng</tspan></text>
<polygon points="955.0,1595.0 990.0,1630.0 955.0,1665.0 920.0,1630.0" fill="#fff2cc" stroke="#bf8f00" stroke-width="1.8"/>
<text x="955.0" y="1589.0" font-size="15" font-weight="bold" fill="#bf8f00" text-anchor="middle">×</text>
<text x="955.0" y="1633.15" font-size="9" fill="#5b4500" font-weight="bold" text-anchor="middle"><tspan x="955.0" dy="0">Hành động
tiếp theo?</tspan></text>
<polygon points="1765.0,1595.0 1800.0,1630.0 1765.0,1665.0 1730.0,1630.0" fill="#fff2cc" stroke="#bf8f00" stroke-width="1.8"/>
<text x="1765.0" y="1589.0" font-size="15" font-weight="bold" fill="#bf8f00" text-anchor="middle">×</text>
<text x="1765.0" y="1633.15" font-size="9" fill="#5b4500" font-weight="bold" text-anchor="middle"><tspan x="1765.0" dy="0">Đầu số
hợp lệ?</tspan></text>
<rect x="840.0" y="1720.0" width="230" height="60" rx="9" fill="#ffffff" stroke="#2e75b6" stroke-width="1.7"/>
<text x="955.0" y="1753.5" font-size="10" fill="#1a1a1a" font-weight="normal" text-anchor="middle"><tspan x="955.0" dy="0">Vào luồng checkout
(step 1)</tspan></text>
<rect x="1650.0" y="1720.0" width="230" height="60" rx="9" fill="#ffffff" stroke="#7030a0" stroke-width="1.7"/>
<text x="1765.0" y="1753.5" font-size="10" fill="#1a1a1a" font-weight="normal" text-anchor="middle"><tspan x="1765.0" dy="0">Đẩy luồng KHTN
cho Sale ECOM</tspan></text>
<rect x="1380.0" y="1840.0" width="230" height="60" rx="9" fill="#ffffff" stroke="#7030a0" stroke-width="1.7"/>
<text x="1495.0" y="1873.5" font-size="10" fill="#1a1a1a" font-weight="normal" text-anchor="middle"><tspan x="1495.0" dy="0">Kiểm tra thông tin HĐLĐ</tspan></text>
<rect x="1650.0" y="1840.0" width="230" height="60" rx="9" fill="#ffffff" stroke="#7030a0" stroke-width="1.7"/>
<text x="1765.0" y="1873.5" font-size="10" fill="#1a1a1a" font-weight="normal" text-anchor="middle"><tspan x="1765.0" dy="0">Thông báo có
NV tư vấn</tspan></text>
<polygon points="1495.0,1955.0 1530.0,1990.0 1495.0,2025.0 1460.0,1990.0" fill="#fff2cc" stroke="#bf8f00" stroke-width="1.8"/>
<text x="1495.0" y="1949.0" font-size="15" font-weight="bold" fill="#bf8f00" text-anchor="middle">×</text>
<text x="1495.0" y="1993.15" font-size="9" fill="#5b4500" font-weight="bold" text-anchor="middle"><tspan x="1495.0" dy="0">Đủ ĐK HĐLĐ?</tspan></text>
<circle cx="1765.0" cy="1990.0" r="26" fill="#ffebee" stroke="#c62828" stroke-width="3.4"/>
<text x="1765.0" y="1993.15" font-size="9" fill="#b71c1c" font-weight="bold" text-anchor="middle"><tspan x="1765.0" dy="0">Hoàn tất</tspan></text>
<rect x="1380.0" y="2080.0" width="230" height="60" rx="9" fill="#ffffff" stroke="#7030a0" stroke-width="1.7"/>
<text x="1495.0" y="2113.5" font-size="10" fill="#1a1a1a" font-weight="normal" text-anchor="middle"><tspan x="1495.0" dy="0">Kiểm tra HĐ Internet</tspan></text>
<polygon points="1495.0,2195.0 1530.0,2230.0 1495.0,2265.0 1460.0,2230.0" fill="#fff2cc" stroke="#bf8f00" stroke-width="1.8"/>
<text x="1495.0" y="2189.0" font-size="15" font-weight="bold" fill="#bf8f00" text-anchor="middle">×</text>
<text x="1495.0" y="2233.15" font-size="9" fill="#5b4500" font-weight="bold" text-anchor="middle"><tspan x="1495.0" dy="0">Là KH mới?</tspan></text>
<rect x="1380.0" y="2320.0" width="230" height="60" rx="9" fill="#ffffff" stroke="#7030a0" stroke-width="1.7"/>
<text x="1495.0" y="2353.5" font-size="10" fill="#1a1a1a" font-weight="normal" text-anchor="middle"><tspan x="1495.0" dy="0">Đi tiếp luồng
toàn trình (B4)</tspan></text>
<rect x="1650.0" y="2320.0" width="230" height="60" rx="9" fill="#ffffff" stroke="#7030a0" stroke-width="1.7"/>
<text x="1765.0" y="2353.5" font-size="10" fill="#1a1a1a" font-weight="normal" text-anchor="middle"><tspan x="1765.0" dy="0">Đẩy SR cho DVKH</tspan></text>
<circle cx="1495.0" cy="2470.0" r="26" fill="#ffebee" stroke="#c62828" stroke-width="3.4"/>
<text x="1495.0" y="2473.15" font-size="9" fill="#b71c1c" font-weight="bold" text-anchor="middle"><tspan x="1495.0" dy="0">Hoàn tất</tspan></text>
<circle cx="1765.0" cy="2470.0" r="26" fill="#ffebee" stroke="#c62828" stroke-width="3.4"/>
<text x="1765.0" y="2473.15" font-size="9" fill="#b71c1c" font-weight="bold" text-anchor="middle"><tspan x="1765.0" dy="0">Hoàn tất</tspan></text>
<text x="970.0" y="2564" font-size="11" fill="#555" text-anchor="middle">Ký hiệu BPMN:  ◯ Start Event   ◉ End Event   ▭ Task   ◇× Exclusive Gateway   ┄┄ Text Annotation   — ▸ Sequence Flow</text>
</svg>